<?xml version="1.0" encoding="UTF-8" standalone="no"?>
<!-- Created with Inkscape (http://www.inkscape.org/) -->

<svg
   version="1.1"
   id="svg1"
   width="344"
   height="351"
   viewBox="0 0 344 351"
   xmlns="http://www.w3.org/2000/svg"
   xmlns:svg="http://www.w3.org/2000/svg">
  <defs
     id="defs1" />
  <g
     id="g1">
    <path
       style="fill:#000000"
       d="M 152.62911,291.49498 C 112.84641,285.00259 77.327593,259.55017 58.725217,224.20441 47.935863,203.70392 43.581904,185.25458 43.691272,160.5 43.853056,123.88163 56.469277,93.273434 81.871356,67.871356 100.60847,49.13424 119.75221,38.693956 146.08122,32.853674 c 13.43631,-2.980433 37.60058,-3.228212 51.19366,-0.524936 38.61835,7.680085 72.26689,32.84566 89.92793,67.256652 9.83451,19.16169 13.80699,34.88057 14.54531,57.55502 0.60288,18.51488 -1.04865,30.78534 -6.25915,46.50386 -6.836,20.62218 -16.85246,36.90308 -31.91502,51.87517 -17.77841,17.6716 -39.79038,29.58558 -64.57395,34.95064 -10.62719,2.30054 -35.22317,2.84416 -46.37089,1.0249 z m 47.21863,-4.46084 c 36.11451,-7.77138 68.56406,-33.10151 85.50791,-66.74749 5.01408,-9.95664 7.32232,-16.20938 10.25764,-27.78665 3.44953,-13.60537 4.34029,-37.41423 1.94538,-51.99759 C 288.83094,87.356306 248.68738,45.596582 196.5,35.375145 185.42533,33.206057 161.75168,32.951153 151,34.885228 98.746737,44.284851 57.968809,85.394434 48.27909,138.44159 45.853569,151.7203 46.139505,174.5034 48.897722,187.73367 59.97264,240.85645 100.41861,279.4879 154.5,288.59833 c 10.87556,1.83207 33.1326,1.06436 45.34774,-1.56419 z m -44.97075,0.51702 C 129.11977,283.84771 104.05978,271.11068 84.978145,252.02425 65.951259,232.99258 54.009524,210.19918 49.491331,184.28995 47.527159,173.02655 47.573189,150.88969 49.585657,138.92622 58.298528,87.131023 97.979041,46.559369 149.95689,36.300855 c 11.50748,-2.271153 35.5379,-2.198164 46.54311,0.141368 34.30527,7.292752 61.26023,25.323531 80.02861,53.532935 10.46677,15.731842 17.0482,32.992852 19.89821,52.186672 9.15247,61.63873 -25.1321,119.61512 -82.61308,139.70156 -17.70497,6.18691 -40.29976,8.36746 -58.93675,5.68777 z M 196.5,277.63512 c 38.44566,-8.46886 69.96875,-35.25813 84.29345,-71.63512 5.81665,-14.77113 7.56234,-24.72404 7.6297,-43.5 0.0854,-23.79262 -2.97678,-36.95644 -13.25487,-56.98145 C 246.90294,50.448583 179.15967,27.721675 123.16937,54.525069 78.236921,76.034907 53.252258,120.5782 57.196627,172.14295 c 1.559984,20.39367 8.9711,41.14696 20.808858,58.27089 6.315373,9.13551 21.084687,23.54264 30.578465,29.82859 14.13144,9.35662 32.67665,16.53547 48.37123,18.72451 9.07335,1.26552 31.1253,0.52284 39.54482,-1.33182 z M 131.8,215.8 c 1.64826,-1.64826 1.60602,-14.46025 -0.05,-15.16621 -0.6875,-0.29309 1.675,-0.44309 5.25,-0.33334 l 6.5,0.19955 v 3.69824 c 0,2.03403 0.5625,4.26153 1.25,4.95 1.90658,1.90926 1.49616,4.56594 -0.97251,6.29506 -2.75964,1.93293 -13.88505,2.26426 -11.97749,0.3567 z m 9.62857,-1.37143 c 1.85909,-1.85909 1.87504,-1.99275 0.53625,-4.49431 C 141.3712,208.82507 139.87825,208 138.46482,208 136.43192,208 136,208.49066 136,210.8 c 0,2.65119 1.53349,5.2 3.12857,5.2 0.40072,0 1.43572,-0.70714 2.3,-1.57143 z M 140.5,204 c 0,-1.83124 -0.60188,-2.58548 -2.25,-2.81955 -1.92335,-0.27316 -2.25,0.13617 -2.25,2.81955 0,2.68338 0.32665,3.09271 2.25,2.81955 1.64812,-0.23407 2.25,-0.98831 2.25,-2.81955 z m 8.25566,11.84434 c 1.60816,-1.60816 1.64279,-13.04589 0.0443,-14.64434 -0.93333,-0.93333 0.28889,-1.2 5.5,-1.2 h 6.7 l -0.0304,2.25 c -0.0272,2.0094 -0.1394,2.06287 -1.04969,0.5 -0.60627,-1.04091 -2.21474,-1.75 -3.96959,-1.75 -2.61146,0 -2.95031,0.34456 -2.95031,3 0,3.04971 2.32202,4.26717 3.33772,1.75 0.27741,-0.6875 0.52623,0.325 0.55292,2.25 0.0394,2.84375 -0.14257,3.17187 -0.97074,1.75 -1.62281,-2.78621 -2.9199,-2.03875 -2.9199,1.68261 0,2.53233 0.51464,3.59596 1.96223,4.0554 2.25162,0.71464 5.98986,-0.97448 6.13745,-2.77319 0.0548,-0.66815 0.43381,-0.0898 0.84219,1.28518 l 0.74252,2.5 1.84302,-3.75 c 1.33804,-2.72252 2.47725,-3.75 4.1578,-3.75 2.3931,0 2.93018,-1.48 1.4088,-3.88213 -0.68404,-1.08004 -1.0285,-0.89964 -1.57599,0.82536 -0.38535,1.21412 -0.91091,1.99722 -1.16791,1.74022 -0.257,-0.25701 0.24442,-2.17059 1.11426,-4.25241 1.81955,-4.3548 2.35708,-4.00396 5.46828,3.56896 1.24277,3.025 2.9017,6.5125 3.68652,7.75 l 1.42694,2.25 h -3.6455 c -2.78695,0 -3.40828,-0.29439 -2.63822,-1.25 0.61942,-0.76868 0.66942,-2.14222 0.12983,-3.56714 -0.67556,-1.78401 -1.51186,-2.24416 -3.63483,-2 -2.35651,0.27103 -2.75699,0.77275 -2.75467,3.45096 l 0.003,3.13381 -9.49706,0.16053 c -7.57461,0.12803 -9.24517,-0.0914 -8.25272,-1.08382 z m 34.89933,-0.67308 C 182.49649,213.89114 182,211.51615 182,207.25459 c 0,-3.93467 -0.44212,-6.26632 -1.25,-6.59231 -0.6875,-0.27741 0.55,-0.50439 2.75,-0.50439 2.2,0 3.4375,0.22698 2.75,0.50439 -1.64548,0.66397 -1.68734,12.50038 -0.05,14.13772 0.66,0.66 2.145,1.2 3.3,1.2 1.155,0 2.64,-0.54 3.3,-1.2 1.63734,-1.63734 1.59548,-13.47375 -0.05,-14.13772 -0.6875,-0.27741 0.0775,-0.53991 1.7,-0.58333 2.29444,-0.0614 2.68333,0.18772 1.75,1.12105 -0.67794,0.67794 -1.2,3.92551 -1.2,7.46482 0,5.17038 -0.33791,6.44565 -1.93426,7.3 -3.00611,1.60882 -7.58614,1.22261 -9.41075,-0.79356 z M 205.2616,215.75 c 1.49364,-1.13577 2.22153,-8.78067 1.80904,-19 -0.11118,-2.75434 -4.57993,-2.18929 -6.99806,0.88486 L 198,200.26972 V 197.13486 194 h 11.5 11.5 v 3.13486 3.13486 l -2.07258,-2.63486 C 217.53164,195.86041 215.89889,195 213.92742,195 H 211 v 8.77749 c 0,6.32585 0.4348,9.39827 1.5567,11 L 214.11341,217 h -5.24784 c -4.40832,0 -4.98486,-0.19997 -3.60397,-1.25 z M 143.5,185.52774 c -15.28835,-5.54104 -11.01281,-29.91778 5.24606,-29.91011 2.84234,0.001 5.82618,0.70609 7.42049,1.75263 l 2.66655,1.7504 0.97985,-1.7509 c 0.75042,-1.34094 1.06265,-0.41815 1.33345,3.94103 0.36299,5.84316 -0.61792,7.64302 -1.7365,3.18626 -1.41256,-5.6281 -9.37862,-9.18971 -14.46529,-6.46741 -4.55949,2.44017 -6.74387,14.21235 -3.90768,21.05952 1.39016,3.35615 5.5019,5.91084 9.51341,5.91084 2.96619,0 9.44966,-5.76329 9.44966,-8.4 0,-0.88 0.42423,-1.6 0.94274,-1.6 0.51851,0 0.92531,2.25 0.90401,5 -0.0359,4.64052 -1.13736,6.62818 -2.0897,3.77116 -0.30337,-0.91012 -1.06516,-0.7993 -2.93713,0.42726 -3.76406,2.46631 -8.79699,2.96859 -13.31992,1.32932 z m 33,0.0212 c -10.607,-3.85492 -13.8897,-17.35924 -6.11073,-25.13821 7.66517,-7.66517 20.97166,-6.25342 26.67554,2.83013 2.61796,4.16916 2.23619,12.53743 -0.75505,16.55061 -4.37304,5.86705 -12.78287,8.31127 -19.80976,5.75747 z m 11.40881,-2.00178 c 3.50144,-1.81067 5.08741,-5.52883 5.23621,-12.2758 C 193.35056,161.95158 189.47811,157 181.98392,157 c -4.16871,0 -6.65348,1.46032 -8.47357,4.97998 -1.87101,3.61814 -1.94152,14.61423 -0.11484,17.90995 2.6617,4.80228 9.14144,6.43512 14.5133,3.65723 z m 54.45884,-0.0826 c -1.72279,-2.1805 -5.99779,-7.78849 -9.5,-12.46219 -3.50221,-4.6737 -6.91584,-9.1737 -7.58585,-10 -0.97413,-1.20136 -1.22457,0.84537 -1.25,10.2157 L 224,182.93613 l 2.75,1.4919 2.75,1.49189 -5.75,0.04 C 220.55664,185.9822 218,185.55537 218,185 c 0,-0.55 0.8687,-1 1.93045,-1 2.42509,0 2.65486,-1.55874 2.25615,-15.30568 l -0.3134,-10.80567 -2.1866,-0.88094 c -1.7004,-0.68506 -1.07483,-0.88713 2.8134,-0.90877 l 5,-0.0278 7.40596,9.97144 c 4.07327,5.48429 7.91036,10.39006 8.52687,10.90171 0.81508,0.67646 1.0787,-1.43994 0.96618,-7.75699 -0.0851,-4.77799 -0.20969,-9.16289 -0.27687,-9.74422 -0.0672,-0.58133 -1.35964,-1.54595 -2.87214,-2.14362 -2.4271,-0.95906 -1.98678,-1.09499 3.75,-1.1576 l 6.5,-0.0709 -2.5,1.38104 -2.5,1.38105 -0.5,14.29807 -0.5,14.29807 z M 68,184.70573 l 2.5,-1.2648 V 171 158.55907 l -2.5,-1.2648 c -2.209458,-1.1178 -1.570266,-1.25492 5.5,-1.17985 4.856837,0.0516 7.017762,0.35759 5.5,0.77889 l -2.5,0.69394 -0.281159,12.8781 C 75.910494,184.58874 76.052319,184.958 81.795455,184.98469 85.336845,185.00114 90,181.34133 90,178.54545 90,177.69545 90.45,177 91,177 c 0.55,0 1,2.025 1,4.5 v 4.5 l -13.25,-0.0147 C 67.410141,185.97264 65.860404,185.78818 68,184.70573 Z m 27.75,0.0738 2.25,-1.08514 v -12.87941 -12.87941 l -2.25,-0.90439 c -1.552801,-0.62415 1.202091,-0.92403 8.89059,-0.96777 l 11.1406,-0.0634 0.41569,3.5607 c 0.22863,1.95839 0.0529,3.78495 -0.39059,4.05902 C 115.36283,163.89379 115,163.41648 115,162.55902 115,159.62325 111.22487,157 107,157 h -4 v 6 6 h 3.5 c 2.83333,0 3.5,-0.38095 3.5,-2 0,-4.3322 1.54409,-1.69659 1.75758,3 0.22573,4.9662 -1.04588,6.82953 -2.04733,3 -0.38083,-1.4563 -1.36401,-2 -3.61663,-2 H 103 v 6.43261 c 0,7.23755 1.14205,8.32613 7.48646,7.13591 3.5215,-0.66064 5.29367,-2.2556 7.18232,-6.46411 l 1.16878,-2.60441 0.0812,5.25 0.0812,5.25 -12.75,-0.0677 c -9.918876,-0.0526 -12.25039,-0.30863 -10.5,-1.15281 z m 108.53039,-0.36741 2.7804,-1.50783 -0.2804,-12.17443 L 206.5,158.5554 204,157.29244 c -2.22568,-1.12438 -1.67705,-1.25762 5,-1.21431 5.50007,0.0357 6.90002,0.2898 5.25,0.95303 L 212,157.93555 V 171 184.06445 l 2.25,0.90439 c 1.64433,0.66094 0.23111,0.91067 -5.25,0.92774 l -7.5,0.0233 z m 65.96961,0.5078 c 1.51259,-0.881 1.75,-2.64484 1.75,-13.00181 v -11.98254 l -2.25,-0.85403 -2.25,-0.85403 3.5,-0.92943 3.5,-0.92942 0.5,13.96707 0.5,13.96707 2,0.77833 c 1.34628,0.52392 0.20226,0.79135 -3.5,0.8182 -4.20105,0.0304 -5.0867,-0.20085 -3.75,-0.97941 z M 172.28282,144.5 c 0.66503,-4.07946 -7.84286,-9.47624 -14.96772,-9.49442 -3.8442,-0.01 -7.11479,-1.81534 -8.49148,-4.68772 -0.73637,-1.53637 -2.23542,-2.91091 -3.33123,-3.05454 -1.70069,-0.2229 -1.66298,-0.1196 0.25761,0.70555 2.44483,1.05039 2.96149,3.91964 1.05,5.83113 -3.30519,3.30519 -8.56258,-1.03222 -6.56507,-5.41627 0.59735,-1.31105 1.72637,-2.38373 2.50892,-2.38373 0.78255,0 1.25838,-0.3375 1.0574,-0.75 -0.20099,-0.4125 -0.98658,-1.9894 -1.74578,-3.50423 -0.75919,-1.51482 -1.12768,-3.0069 -0.81885,-3.31572 1.02324,-1.02324 9.2111,1.71476 12.44666,4.16213 3.96749,3.001 4.88715,3.06031 2.87342,0.18531 C 154.93722,120.46536 154.42384,116 155.77749,116 c 3.24362,0 10.01019,8.75291 13.77984,17.82494 l 2.35813,5.67506 0.0423,-6.02749 c 0.0496,-7.07625 -1.171,-9.23537 -7.22769,-12.78483 -5.05214,-2.96075 -6.95296,-6.03432 -6.30047,-10.18768 0.25921,-1.65 0.77727,-4.90819 1.15125,-7.24043 0.73312,-4.572005 -0.3584,-6.813275 -4.0461,-8.308046 -1.71186,-0.693882 -1.53119,-0.834809 1.13855,-0.888138 8.08628,-0.161523 15.00782,12.746874 15.45509,28.823104 l 0.12835,4.61351 0.89709,-6 c 2.50058,-16.72456 5.91927,-24.365866 12.05555,-26.945976 4.57844,-1.925094 6.68027,-0.773249 2.845,1.559121 -3.44808,2.096899 -3.61292,3.19911 -1.60606,10.738975 1.79737,6.75278 0.93074,9.17879 -4.66084,13.04742 -7.65027,5.29296 -7.79198,5.51913 -7.73872,12.35046 l 0.0487,6.25 2.58219,-6.31266 c 1.54147,-3.76842 4.62164,-8.54415 7.64243,-11.84937 l 5.06025,-5.53672 0.83022,2.2443 c 1.25504,3.39268 0.16665,5.46228 -5.52177,10.49972 l -5.19078,4.59676 3.91606,-2.26777 c 2.15383,-1.24727 5.97883,-2.86191 8.5,-3.58809 l 4.58394,-1.32033 -4.5,0.51239 -4.5,0.51238 3,-2.51139 c 3.02352,-2.53109 12.3599,-5.95266 13.40129,-4.91127 0.30863,0.30864 -0.19493,1.87857 -1.11904,3.48873 l -1.68019,2.92757 1.88124,1.00681 c 1.03469,0.55375 2.18384,1.96018 2.55367,3.12541 0.90483,2.85086 -2.50974,6.34434 -5.32706,5.45015 -3.6079,-1.1451 -3.87009,-5.96798 -0.37477,-6.89369 1.4406,-0.38153 1.42226,-0.45655 -0.13617,-0.55693 -1.15251,-0.0742 -2.30217,1.08341 -3.1928,3.21499 l -1.39177,3.33098 -8.12164,1.60006 c -9.01641,1.77632 -10.25754,2.50367 -13.08216,7.66668 -1.08612,1.98526 -1.80902,2.68308 -1.62778,1.57129 z M 163.5,129.57374 c -2.2,-1.86808 -4.675,-3.38648 -5.5,-3.37422 -0.825,0.0123 -3.075,-0.26833 -5,-0.62352 -1.98442,-0.36616 -1.03576,0.18056 2.19079,1.26256 3.12994,1.0496 6.95494,2.85105 8.5,4.00322 4.36135,3.25231 4.24836,2.50136 -0.19079,-1.26804 z m 1.5,-18.9513 c 0,-0.20765 -0.7875,-0.99515 -1.75,-1.75 L 161.5,107.5 l 1.37244,1.75 C 164.17881,110.91575 165,111.44548 165,110.62244 Z M 81.5,119 c 0.339919,-0.55 0.816476,-1 1.059017,-1 C 82.801558,118 83,118.45 83,119 c 0,0.55 -0.476558,1 -1.059017,1 -0.582459,0 -0.780902,-0.45 -0.440983,-1 z m 90.56336,-7.07759 c -0.0348,-1.41768 -1.18836,-5.34624 -2.56336,-8.73013 -3.36987,-8.293294 -3.32126,-14.519413 0.15326,-19.632632 l 2.65326,-3.90462 2.30019,2.674133 c 3.28044,3.81374 4.53932,9.12768 3.33806,14.090451 -1.90369,7.864688 -5.8157,18.176348 -5.88141,15.502798 z"
       id="path1" />
  </g>
</svg>
